{"glyphs":{"0":{"ha":758,"x_min":56,"x_max":702,"o":"m 702 505 q 623 106 702 233 q 379 -21 544 -21 q 134 109 212 -21 q 56 504 56 238 q 135 904 56 777 q 379 1030 214 1030 q 624 899 546 1030 q 702 505 702 768 m 528 197 q 556 324 548 248 q 564 505 564 401 q 556 686 564 609 q 528 813 548 762 q 472 891 507 865 q 379 918 436 918 q 287 891 323 918 q 229 812 250 865 q 201 682 209 760 q 194 504 194 603 q 200 327 194 398 q 229 199 207 256 q 284 119 248 147 q 379 91 321 91 q 472 118 435 91 q 528 197 508 144 z "},"1":{"ha":758,"x_min":153,"x_max":646,"o":"m 646 0 l 153 0 l 153 103 l 336 103 l 336 780 l 153 780 l 153 872 q 306 902 257 872 q 361 1013 355 931 l 467 1013 l 467 103 l 646 103 l 646 0 z "},"2":{"ha":758,"x_min":74,"x_max":697,"o":"m 697 0 l 74 0 l 74 142 q 201 264 141 205 q 317 385 260 322 q 475 588 433 512 q 517 746 517 665 q 504 820 517 788 q 467 873 490 852 q 412 903 444 893 q 344 913 381 913 q 271 904 308 913 q 200 882 234 895 q 145 854 172 870 q 102 826 119 838 l 95 826 l 95 970 q 212 1011 137 991 q 354 1031 287 1031 q 575 956 495 1031 q 655 753 655 881 q 641 644 655 694 q 603 551 627 593 q 543 463 578 507 q 468 378 507 420 q 326 234 404 309 q 201 116 248 159 l 697 116 l 697 0 z "},"3":{"ha":758,"x_min":66,"x_max":680,"o":"m 347 913 q 273 905 310 913 q 201 882 237 896 q 145 853 169 868 q 102 825 121 838 l 94 825 l 94 968 q 213 1011 138 992 q 357 1031 289 1031 q 477 1017 426 1031 q 570 974 528 1003 q 637 895 614 941 q 660 787 660 849 q 605 641 660 704 q 473 561 550 578 l 473 551 q 542 530 505 545 q 609 486 578 515 q 660 411 640 457 q 680 300 680 366 q 656 174 680 231 q 590 73 633 117 q 484 3 546 26 q 342 -21 421 -21 q 191 -3 266 -21 q 66 41 117 16 l 66 184 l 75 184 q 190 125 118 153 q 334 96 262 96 q 417 110 375 96 q 486 153 458 123 q 528 218 513 182 q 542 309 542 254 q 526 399 542 364 q 481 455 510 435 q 414 483 453 475 q 330 491 375 491 l 272 491 l 272 604 l 317 604 q 466 647 408 604 q 523 773 523 690 q 508 839 523 811 q 470 882 493 866 q 413 907 444 900 q 347 913 382 913 z "},"4":{"ha":758,"x_min":27,"x_max":724,"o":"m 724 347 l 604 347 l 604 0 l 473 0 l 473 347 l 27 347 l 27 490 l 479 1010 l 604 1010 l 604 456 l 724 456 l 724 347 m 473 456 l 473 850 l 133 456 l 473 456 z "},"5":{"ha":758,"x_min":84,"x_max":686,"o":"m 686 321 q 662 186 686 248 q 597 78 639 123 q 491 5 554 32 q 349 -21 427 -21 q 206 -5 276 -21 q 84 37 136 11 l 84 180 l 94 180 q 138 154 109 168 q 203 126 168 139 q 276 104 243 112 q 351 96 309 96 q 430 111 391 96 q 496 158 469 125 q 535 228 522 188 q 548 322 548 268 q 533 410 548 376 q 491 467 519 445 q 419 504 462 493 q 325 514 377 514 q 214 506 270 514 q 125 490 159 497 l 125 1010 l 680 1010 l 680 891 l 256 891 l 256 623 q 304 627 281 625 q 348 628 328 628 q 479 615 425 628 q 582 565 532 602 q 659 470 632 527 q 686 321 686 413 z "},"6":{"ha":758,"x_min":58,"x_max":713,"o":"m 713 328 q 687 184 713 250 q 618 74 661 118 q 516 3 572 27 q 392 -21 460 -21 q 268 2 323 -21 q 169 71 212 25 q 87 217 117 125 q 58 444 58 309 q 85 681 58 575 q 168 866 112 787 q 310 986 223 943 q 511 1029 397 1029 q 574 1025 545 1029 q 625 1015 603 1022 l 625 885 l 619 885 q 566 904 601 895 q 492 912 532 912 q 289 827 366 912 q 197 574 211 742 q 296 627 245 608 q 407 645 347 645 q 510 633 466 645 q 603 585 555 621 q 686 479 659 543 q 713 328 713 414 m 575 322 q 559 427 575 385 q 506 498 543 469 q 446 527 479 520 q 377 534 412 534 q 285 519 330 534 q 197 478 240 505 q 195 449 195 463 q 194 414 194 435 q 215 245 194 309 q 266 147 235 180 q 326 102 295 115 q 393 90 357 90 q 525 148 474 90 q 575 322 575 206 z "},"7":{"ha":758,"x_min":67,"x_max":708,"o":"m 708 859 l 271 0 l 127 0 l 589 891 l 67 891 l 67 1010 l 708 1010 l 708 859 z "},"8":{"ha":758,"x_min":50,"x_max":708,"o":"m 550 774 q 505 888 550 842 q 378 933 459 933 q 257 892 304 933 q 210 783 210 852 q 234 698 210 732 q 307 635 258 663 q 371 604 328 624 q 449 572 414 583 q 529 665 508 617 q 550 774 550 713 m 569 269 q 545 368 569 331 q 450 442 520 404 q 389 470 427 455 q 302 505 351 485 q 216 413 246 468 q 186 289 186 359 q 242 138 186 197 q 380 78 297 78 q 517 129 466 78 q 569 269 569 180 m 379 -23 q 242 -1 304 -23 q 137 64 180 22 q 72 160 94 104 q 50 279 50 216 q 94 430 50 361 q 221 539 138 498 l 221 543 q 111 638 146 587 q 75 767 75 690 q 161 957 75 881 q 379 1033 247 1033 q 600 961 517 1033 q 683 776 683 888 q 643 642 683 708 q 529 538 604 575 l 529 534 q 663 433 617 492 q 708 281 708 374 q 614 64 708 152 q 379 -23 520 -23 z "},"9":{"ha":758,"x_min":45,"x_max":701,"o":"m 564 595 q 545 763 564 698 q 493 863 526 827 q 433 907 463 895 q 366 920 402 920 q 233 860 282 920 q 183 687 183 800 q 199 582 183 623 q 252 511 216 541 q 311 483 278 490 q 380 475 343 475 q 474 491 424 475 q 562 531 524 506 q 563 558 562 541 q 564 595 564 574 m 45 682 q 71 824 45 760 q 140 935 96 888 q 243 1005 182 980 q 366 1030 304 1030 q 493 1007 436 1030 q 591 939 549 983 q 672 793 643 884 q 701 566 701 703 q 672 328 701 440 q 589 142 644 216 q 449 22 531 63 q 248 -20 368 -20 q 190 -17 220 -20 q 133 -5 159 -14 l 133 124 l 140 124 q 193 106 157 115 q 266 97 229 97 q 475 184 399 97 q 561 435 551 272 q 457 381 507 398 q 351 364 408 364 q 248 376 294 364 q 155 424 202 389 q 73 529 101 465 q 45 682 45 592 z "}," ":{"ha":434,"x_min":0,"x_max":0,"o":""},"!":{"ha":461,"x_min":155,"x_max":307,"o":"m 307 1010 l 288 278 l 175 278 l 155 1010 l 307 1010 m 300 0 l 161 0 l 161 143 l 300 143 l 300 0 z "},"\"":{"ha":557,"x_min":77,"x_max":480,"o":"m 480 1055 l 451 663 l 361 663 l 332 1055 l 480 1055 m 225 1055 l 196 663 l 106 663 l 77 1055 l 225 1055 z "},"#":{"ha":1010,"x_min":96,"x_max":914,"o":"m 914 632 l 715 632 l 653 377 l 835 377 l 835 286 l 629 286 l 558 0 l 471 0 l 542 286 l 359 286 l 288 0 l 200 0 l 271 286 l 96 286 l 96 377 l 295 377 l 357 632 l 176 632 l 176 724 l 381 724 l 452 1010 l 540 1010 l 469 724 l 652 724 l 723 1010 l 810 1010 l 739 724 l 914 724 l 914 632 m 630 633 l 444 633 l 380 376 l 566 376 l 630 633 z "},"$":{"ha":758,"x_min":72,"x_max":694,"o":"m 694 258 q 618 86 694 158 q 426 1 542 15 l 426 -245 l 349 -245 l 349 -3 q 201 14 275 -2 q 72 58 127 31 l 72 195 l 82 195 q 203 130 136 155 q 349 98 270 104 l 349 391 q 307 400 332 395 q 266 412 283 406 q 120 496 164 439 q 77 634 77 552 q 152 802 77 730 q 349 884 227 873 l 349 1069 l 426 1069 l 426 886 q 554 868 488 884 q 662 835 620 853 l 662 701 l 652 701 q 548 758 604 733 q 426 787 491 782 l 426 496 q 468 486 448 491 q 501 477 487 481 q 644 402 593 456 q 694 258 694 349 m 349 506 l 349 787 q 246 747 288 781 q 205 652 205 713 q 235 558 205 591 q 349 506 265 526 m 566 240 q 534 334 566 304 q 426 380 501 365 l 426 99 q 531 141 495 107 q 566 240 566 174 z "},"%":{"ha":1356,"x_min":69,"x_max":1286,"o":"m 547 730 q 486 504 547 577 q 309 430 425 430 q 130 505 191 430 q 69 729 69 579 q 131 955 69 881 q 309 1029 193 1029 q 487 954 427 1029 q 547 730 547 880 m 999 1010 l 470 0 l 358 0 l 887 1010 l 999 1010 m 1286 280 q 1225 54 1286 127 q 1048 -20 1164 -20 q 869 55 930 -20 q 808 279 808 130 q 870 505 808 431 q 1048 579 932 579 q 1226 505 1166 579 q 1286 280 1286 430 m 427 730 q 402 886 427 833 q 309 939 378 939 q 214 885 239 939 q 190 729 190 831 q 213 574 190 627 q 309 520 236 520 q 402 574 378 520 q 427 730 427 627 m 1166 280 q 1142 436 1166 383 q 1048 489 1118 489 q 954 435 978 489 q 929 279 929 382 q 952 124 929 178 q 1048 71 975 71 q 1142 124 1118 71 q 1166 280 1166 178 z "},"&":{"ha":936,"x_min":45,"x_max":980,"o":"m 980 0 l 806 0 l 668 144 q 526 18 599 56 q 361 -21 453 -21 q 135 61 224 -21 q 45 277 45 144 q 62 381 45 336 q 105 463 78 427 q 166 525 132 498 q 233 572 201 552 q 130 669 164 618 q 96 797 96 720 q 116 886 96 845 q 166 958 135 927 q 251 1010 199 990 q 364 1031 302 1031 q 548 971 477 1031 q 619 821 619 912 q 611 752 619 788 q 580 684 602 717 q 521 621 557 650 q 425 570 485 592 l 663 325 q 675 446 673 380 q 677 616 677 511 l 809 616 l 809 551 q 792 405 809 486 q 738 250 776 323 l 980 0 m 609 204 l 297 524 q 263 498 280 513 q 226 453 246 483 q 197 391 210 429 q 184 310 184 353 q 242 152 184 214 q 397 90 299 90 q 514 117 462 90 q 609 204 566 144 m 361 618 q 424 653 399 631 q 462 701 448 675 q 480 751 474 724 q 486 808 486 777 q 448 909 486 873 q 359 945 410 945 q 264 905 298 945 q 229 803 229 864 q 234 756 229 776 q 256 711 239 737 q 295 667 270 690 q 361 618 321 643 z "},"'":{"ha":293,"x_min":71,"x_max":222,"o":"m 222 1055 l 193 663 l 100 663 l 71 1055 l 222 1055 z "},"(":{"ha":532,"x_min":73,"x_max":481,"o":"m 481 -279 l 326 -279 q 141 18 208 -139 q 73 388 73 174 q 140 756 73 597 q 326 1055 207 915 l 481 1055 l 481 1048 q 377 934 427 999 q 284 783 327 869 q 218 600 243 700 q 193 388 193 499 q 217 176 193 272 q 284 -7 242 79 q 377 -158 325 -91 q 481 -273 429 -226 l 481 -279 z "},")":{"ha":532,"x_min":50,"x_max":458,"o":"m 458 388 q 391 20 458 178 q 205 -279 324 -139 l 50 -279 l 50 -273 q 155 -158 102 -226 q 248 -7 208 -90 q 314 177 290 80 q 339 388 339 275 q 314 600 339 500 q 248 783 289 699 q 154 935 206 867 q 50 1048 102 1002 l 50 1055 l 205 1055 q 391 757 323 915 q 458 388 458 599 z "},"*":{"ha":758,"x_min":76,"x_max":683,"o":"m 683 602 l 639 527 l 417 674 l 422 427 l 337 427 l 341 674 l 121 526 l 76 601 l 316 741 l 76 882 l 121 956 l 342 808 l 337 1055 l 422 1055 l 416 808 l 639 956 l 683 881 l 443 742 l 683 602 z "},"+":{"ha":1010,"x_min":106,"x_max":904,"o":"m 904 388 l 562 388 l 562 45 l 449 45 l 449 388 l 106 388 l 106 496 l 449 496 l 449 839 l 562 839 l 562 496 l 904 496 l 904 388 z "},",":{"ha":386,"x_min":126,"x_max":267,"o":"m 267 -48 q 251 -95 258 -76 q 239 -126 245 -113 q 227 -146 233 -138 q 212 -161 220 -155 q 190 -176 203 -168 q 159 -195 177 -183 q 151 -179 153 -184 q 145 -170 149 -174 q 138 -160 142 -165 q 126 -146 134 -155 q 157 -126 146 -134 q 175 -108 168 -118 q 187 -82 182 -98 q 202 -38 193 -66 l 202 0 l 137 0 l 137 130 l 267 130 l 267 -48 z "},"-":{"ha":505,"x_min":61,"x_max":444,"o":"m 444 380 l 61 380 l 61 503 l 444 503 l 444 380 z "},".":{"ha":420,"x_min":129,"x_max":291,"o":"m 291 0 l 129 0 l 129 193 l 291 193 l 291 0 z "},"/":{"ha":531,"x_min":-16,"x_max":494,"o":"m 494 1055 l 98 -220 l -16 -220 l 377 1055 l 494 1055 z "},":":{"ha":491,"x_min":165,"x_max":327,"o":"m 327 564 l 165 564 l 165 758 l 327 758 l 327 564 m 327 0 l 165 0 l 165 193 l 327 193 l 327 0 z "},";":{"ha":491,"x_min":83,"x_max":372,"o":"m 327 564 l 165 564 l 165 758 l 327 758 l 327 564 m 372 193 l 182 -251 l 83 -251 l 202 193 l 372 193 z "},"<":{"ha":1010,"x_min":136,"x_max":865,"o":"m 865 54 l 136 401 l 136 483 l 865 831 l 865 710 l 300 442 l 865 174 l 865 54 z "},"=":{"ha":1010,"x_min":130,"x_max":880,"o":"m 880 530 l 130 530 l 130 639 l 880 639 l 880 530 m 880 245 l 130 245 l 130 354 l 880 354 l 880 245 z "},">":{"ha":1010,"x_min":146,"x_max":874,"o":"m 874 401 l 146 54 l 146 174 l 711 442 l 146 710 l 146 831 l 874 483 l 874 401 z "},"?":{"ha":658,"x_min":74,"x_max":618,"o":"m 618 772 q 596 654 618 706 q 538 563 574 602 q 455 490 501 524 q 357 426 408 457 l 357 271 l 235 271 l 235 478 q 324 533 273 501 q 403 593 374 566 q 460 669 439 628 q 480 762 480 710 q 432 877 480 839 q 307 914 384 914 q 179 891 239 914 q 81 844 119 869 l 74 844 l 74 983 q 189 1016 119 1001 q 319 1030 258 1030 q 538 959 458 1030 q 618 772 618 888 m 368 0 l 229 0 l 229 143 l 368 143 l 368 0 z "},"@":{"ha":1263,"x_min":90,"x_max":1179,"o":"m 1179 450 q 1154 268 1179 355 q 1080 106 1128 180 l 794 106 l 777 185 q 693 124 732 146 q 589 101 655 101 q 418 185 485 101 q 352 428 352 269 q 434 676 352 587 q 621 765 515 765 q 705 753 669 765 q 776 720 740 741 l 776 753 l 884 753 l 884 182 l 1038 182 q 1075 307 1063 230 q 1086 446 1086 383 q 973 803 1086 667 q 648 938 860 938 q 317 792 448 938 q 186 437 186 646 q 313 75 186 214 q 645 -64 440 -64 q 761 -56 700 -64 q 876 -33 821 -49 l 876 -129 q 760 -148 819 -142 q 644 -153 701 -153 q 247 12 404 -153 q 90 439 90 176 q 252 859 90 688 q 648 1029 414 1029 q 1038 868 897 1029 q 1179 450 1179 707 m 774 277 l 774 628 q 705 656 736 648 q 638 665 673 665 q 515 607 562 665 q 468 430 468 550 q 503 264 468 321 q 616 206 538 206 q 697 226 657 206 q 774 277 738 245 z "},"ກ":{"ha":869,"x_min":68,"x_max":802,"o":"m 181 64 q 224 105 224 64 q 181 146 224 146 q 138 105 138 146 q 181 64 138 64 m 178 708 q 137 679 137 708 q 165 644 137 648 q 175 644 170 644 q 224 661 198 644 q 178 708 219 704 m 316 116 q 186 0 311 9 q 68 109 74 2 q 155 215 79 197 q 181 217 170 217 q 224 206 209 217 l 224 572 q 182 566 203 569 q 68 673 68 576 q 174 773 68 770 q 316 700 268 773 q 538 773 427 770 q 802 588 783 767 l 802 24 q 756 0 802 0 q 710 28 710 0 l 710 586 q 538 688 709 677 q 376 646 422 673 q 316 605 330 619 l 316 116 z "},"ຂ":{"ha":821,"x_min":68,"x_max":753,"o":"m 224 567 q 178 520 178 567 q 224 473 178 473 q 270 520 270 473 q 224 567 270 567 m 249 0 q 125 49 182 0 q 68 163 68 98 q 267 361 68 304 l 410 403 q 663 555 663 471 q 598 649 659 613 q 391 684 536 684 q 162 602 191 684 q 224 630 189 630 q 338 534 338 630 q 339 514 339 524 q 218 411 339 412 q 68 568 68 415 q 391 773 68 773 q 535 764 486 772 q 641 728 593 753 q 722 661 689 703 q 753 553 753 618 q 442 319 753 406 l 280 273 q 157 163 157 237 q 185 114 158 137 q 248 90 213 90 q 402 131 290 90 q 571 172 515 172 q 696 115 639 172 l 722 85 q 746 28 741 56 l 746 22 q 712 0 746 0 q 671 18 673 0 q 636 57 666 31 q 572 82 607 82 q 416 42 531 82 q 249 0 300 1 z "},"ຄ":{"ha":821,"x_min":68,"x_max":753,"o":"m 280 107 q 232 153 280 153 q 184 107 184 153 q 232 61 184 61 q 280 107 280 61 m 68 258 q 180 408 68 366 q 68 565 68 451 q 410 773 68 773 q 753 534 751 773 l 753 28 q 707 0 753 0 q 661 28 661 0 l 661 535 q 412 689 661 689 q 161 565 161 689 q 203 470 161 494 q 289 446 245 447 q 342 408 342 446 q 315 371 342 371 q 203 349 288 371 q 161 258 161 322 l 161 178 l 167 186 q 245 215 195 215 q 351 121 351 215 q 353 100 353 110 q 232 0 353 1 q 68 200 68 4 l 68 258 z "},"ງ":{"ha":517,"x_min":68,"x_max":449,"o":"m 203 659 q 157 612 157 659 q 203 564 157 564 q 250 612 250 564 q 203 659 250 659 m 141 -286 q 96 -282 124 -285 q 68 -233 68 -279 q 92 -191 68 -191 l 96 -191 q 146 -197 125 -196 q 244 -185 209 -194 q 308 -150 279 -176 q 347 -90 337 -123 q 357 14 357 -57 l 357 566 q 285 675 357 667 q 313 612 313 648 q 218 494 313 494 q 197 493 207 493 q 81 618 94 493 q 251 773 98 773 q 449 562 449 773 l 449 -100 q 401 -203 449 -155 q 296 -268 353 -252 q 141 -286 239 -283 z "},"ຈ":{"ha":821,"x_min":68,"x_max":753,"o":"m 420 394 l 420 391 q 470 347 420 347 l 471 347 q 524 395 524 347 q 473 441 524 441 q 420 394 422 441 m 417 685 q 173 574 173 685 q 121 545 173 545 q 68 574 68 545 q 420 773 68 773 q 753 568 753 773 q 752 544 753 556 l 752 139 q 602 0 752 1 q 469 73 499 3 q 455 135 455 104 q 475 206 455 172 q 510 274 510 271 q 450 260 495 260 l 446 260 q 328 392 331 278 l 328 399 q 455 528 328 507 l 457 528 q 612 429 592 528 q 618 365 618 395 q 593 261 618 306 q 552 146 555 194 q 551 140 551 143 q 602 87 551 96 l 609 87 q 661 142 655 87 l 661 544 q 417 685 661 685 z "},"ຊ":{"ha":821,"x_min":68,"x_max":753,"o":"m 262 518 q 218 565 262 565 q 174 518 174 565 q 218 471 174 471 q 262 518 262 471 m 641 65 q 627 136 641 115 q 578 157 613 157 q 448 98 514 157 q 230 0 336 0 q 103 42 139 0 q 68 146 68 85 q 282 337 68 260 l 423 389 q 641 573 641 465 q 379 685 637 685 q 159 600 186 685 q 218 628 185 628 q 328 532 328 628 q 330 512 330 522 q 212 409 330 410 q 68 566 68 413 q 377 773 68 773 l 381 773 q 728 571 728 773 q 452 304 728 399 l 302 249 q 154 146 154 197 q 168 103 154 117 q 229 90 182 90 q 400 169 301 90 q 578 247 500 247 q 689 200 649 247 q 728 65 728 154 l 728 -147 q 736 -211 730 -180 q 749 -250 743 -242 q 753 -258 753 -254 q 752 -260 753 -259 q 714 -264 749 -264 q 661 -250 665 -264 q 647 -200 651 -229 q 642 -138 642 -172 q 641 -40 641 -126 l 641 65 z "},"ຍ":{"ha":821,"x_min":68,"x_max":753,"o":"m 280 666 q 232 712 280 712 q 184 666 184 712 q 232 621 184 621 q 280 666 280 621 m 161 241 q 412 84 161 84 q 661 233 661 84 l 661 752 q 707 773 661 773 q 753 753 753 773 l 752 233 q 410 0 751 0 q 68 241 68 0 q 180 391 68 349 q 68 542 68 434 l 68 573 q 232 773 68 769 q 353 673 353 772 q 351 652 353 663 q 245 558 351 558 q 167 587 195 558 l 161 595 l 161 542 q 203 454 161 477 q 294 431 245 431 q 342 392 342 431 q 294 352 342 352 q 203 329 245 352 q 161 241 161 306 z "},"ດ":{"ha":821,"x_min":68,"x_max":753,"o":"m 280 107 q 232 153 280 153 q 184 107 184 153 q 232 61 184 61 q 280 107 280 61 m 68 498 q 412 773 68 773 q 753 498 753 773 l 753 22 q 707 0 753 0 q 661 22 661 0 l 661 498 q 412 689 661 689 q 161 498 161 689 l 161 178 l 167 186 q 245 215 195 215 q 351 121 351 215 q 353 100 353 110 q 232 0 353 1 q 68 200 68 4 l 68 498 z "},"ຕ":{"ha":819,"x_min":68,"x_max":751,"o":"m 230 153 q 182 107 182 153 q 230 61 182 61 q 278 107 278 61 q 230 153 278 153 m 751 498 l 751 22 q 706 0 751 0 q 660 22 660 0 l 660 498 q 583 689 660 689 q 468 618 520 689 q 409 576 437 576 q 350 618 381 576 q 235 689 298 689 q 159 498 159 689 l 159 178 l 165 186 q 244 215 194 215 q 349 121 349 215 q 351 100 351 110 q 230 0 351 1 q 68 200 68 4 l 68 498 q 241 773 68 773 q 409 667 326 773 q 576 773 492 773 q 751 498 751 773 z "},"ຖ":{"ha":949,"x_min":68,"x_max":878,"o":"m 431 115 q 383 165 431 165 q 335 115 335 165 q 383 64 335 64 q 431 115 431 64 m 184 705 q 142 675 142 705 q 189 642 142 644 l 199 642 q 240 647 220 642 q 184 705 234 705 m 754 549 q 567 682 747 677 q 410 643 486 679 l 362 621 l 335 606 l 335 229 q 369 231 352 231 q 511 112 511 231 q 369 -7 511 -7 l 359 -7 q 243 106 243 -7 l 243 581 q 192 570 210 570 q 68 669 68 570 q 190 773 68 766 q 323 697 284 766 q 574 773 447 766 q 846 549 846 762 l 846 -77 q 849 -172 846 -126 q 873 -254 852 -218 q 878 -265 878 -261 q 846 -271 876 -271 q 790 -264 798 -271 q 773 -230 783 -256 q 759 -168 764 -203 q 754 -66 754 -132 l 754 549 z "},"ທ":{"ha":949,"x_min":68,"x_max":882,"o":"m 183 607 q 227 656 227 607 q 183 707 227 707 q 140 656 140 707 q 183 607 140 607 m 160 233 q 299 89 165 89 q 438 239 433 89 l 438 544 q 647 773 438 773 q 882 533 882 773 l 882 23 q 836 0 882 0 q 790 23 790 0 l 787 534 q 656 684 784 684 q 530 533 530 684 l 530 239 q 299 0 530 0 q 68 233 68 0 q 146 473 68 368 q 192 540 174 508 q 68 656 68 541 q 193 773 68 773 q 320 656 320 773 q 243 448 320 557 q 160 233 165 338 z "},"ນ":{"ha":821,"x_min":68,"x_max":753,"o":"m 144 656 q 184 606 144 606 q 224 656 224 606 q 184 705 224 705 q 144 656 144 705 m 309 180 q 393 136 356 168 q 528 84 452 84 q 667 201 667 84 l 667 751 q 710 773 667 773 q 753 750 753 773 l 753 198 q 528 0 753 0 q 365 54 425 0 q 288 102 326 90 q 125 3 242 3 l 119 3 q 100 39 100 3 q 109 76 100 74 q 155 83 118 79 q 205 125 193 87 q 224 230 218 163 l 224 541 q 190 539 204 539 q 68 656 68 539 q 190 773 68 772 q 311 656 311 772 l 311 229 q 309 180 311 203 z "},"ບ":{"ha":821,"x_min":68,"x_max":753,"o":"m 178 606 q 220 656 220 606 q 178 705 220 705 q 137 656 137 705 q 178 606 137 606 m 161 233 q 412 84 161 84 q 661 266 661 84 l 661 749 q 707 773 661 773 q 753 749 753 773 l 752 264 q 410 0 751 0 q 68 233 68 0 q 144 472 68 367 q 186 539 170 507 q 68 656 68 541 q 189 773 68 772 q 309 656 309 772 q 235 447 309 556 q 161 233 161 337 z "},"ປ":{"ha":821,"x_min":68,"x_max":746,"o":"m 173 604 q 212 655 212 604 q 173 706 212 706 q 134 655 134 706 q 173 604 134 604 m 634 789 q 635 855 634 827 q 641 917 636 888 q 652 970 645 946 q 706 994 659 994 q 746 982 746 994 q 745 977 746 980 q 731 931 736 961 q 725 864 726 901 q 723 777 723 827 l 723 271 q 394 0 723 0 q 68 237 68 0 q 140 475 68 374 q 181 536 165 511 q 68 655 68 538 q 182 773 68 773 l 184 773 q 300 655 300 773 q 230 449 300 554 q 159 237 159 344 q 395 92 159 92 q 633 271 633 92 l 633 789 l 634 789 z "},"ຜ":{"ha":834,"x_min":68,"x_max":768,"o":"m 267 671 q 224 714 267 714 q 180 671 180 714 q 224 628 180 628 q 267 671 267 628 m 607 628 q 657 673 648 639 q 607 711 641 711 q 561 664 566 711 q 607 628 566 628 m 416 70 q 266 0 369 0 q 68 227 68 0 l 68 583 q 224 773 68 768 q 338 665 338 770 l 338 658 q 235 559 326 564 q 159 592 191 559 l 159 227 q 267 86 159 86 q 371 210 371 86 l 371 254 q 416 288 371 288 q 462 249 462 288 l 460 219 l 460 214 q 562 86 460 86 q 667 227 667 86 l 667 587 q 597 559 649 559 q 489 661 500 564 q 610 773 489 765 q 689 743 662 773 q 694 787 694 767 q 694 800 694 793 l 694 802 q 725 821 694 821 q 762 810 758 821 q 768 774 766 800 q 745 684 766 742 q 758 580 758 642 l 758 227 q 568 0 758 0 q 416 70 465 0 z "},"ຝ":{"ha":834,"x_min":68,"x_max":760,"o":"m 255 666 q 212 713 255 713 q 170 666 170 713 q 212 619 170 619 q 255 666 255 619 m 742 246 q 547 0 742 0 q 399 68 446 0 q 254 0 353 0 q 68 246 68 0 l 68 571 q 212 773 68 771 l 214 773 q 326 660 326 773 l 326 653 q 224 556 317 562 l 216 556 q 157 574 157 556 l 157 246 q 255 92 157 92 q 354 216 354 92 l 354 271 q 400 312 354 312 q 446 272 446 312 l 444 232 l 444 222 q 545 92 444 92 q 649 246 649 92 l 649 789 l 650 789 q 651 855 650 827 q 656 917 652 888 q 667 970 660 946 q 720 994 673 994 q 760 981 760 994 q 759 977 760 979 q 747 931 751 961 q 742 864 743 901 q 742 777 742 827 l 742 246 z "},"ພ":{"ha":834,"x_min":68,"x_max":766,"o":"m 168 606 q 206 656 206 606 q 168 705 206 705 q 131 656 131 705 q 168 606 131 606 m 269 91 q 369 227 369 91 l 369 757 q 415 773 369 773 q 461 757 461 773 l 458 233 l 458 224 q 564 91 458 91 q 675 241 673 91 l 675 757 q 721 773 675 773 q 766 756 766 773 l 763 241 q 567 0 760 0 q 415 67 464 0 q 271 0 367 0 q 68 233 68 0 q 137 472 68 380 q 176 539 160 507 q 68 656 68 541 q 178 773 68 772 q 288 656 288 772 q 224 453 288 556 q 159 232 159 350 l 159 227 q 267 91 159 91 l 269 91 z "},"ຟ":{"ha":834,"x_min":68,"x_max":760,"o":"m 179 616 q 214 661 214 616 q 179 706 214 706 q 144 661 144 706 q 179 616 144 616 m 741 227 q 552 0 741 5 q 409 68 454 0 q 275 0 364 0 q 85 237 85 0 q 150 468 85 374 q 186 536 172 504 q 68 662 68 545 q 189 782 68 781 q 304 656 304 774 q 239 449 304 555 q 174 237 174 344 q 277 92 177 92 q 366 216 366 92 q 365 237 366 226 l 365 751 q 410 769 365 769 q 454 751 454 769 l 454 161 q 553 92 454 92 q 652 228 652 92 q 652 246 652 237 l 652 789 l 652 789 q 654 855 652 827 q 658 917 654 888 q 668 970 662 946 q 721 994 675 994 q 760 981 760 994 q 759 977 760 979 q 747 931 751 961 q 742 864 743 901 q 741 777 741 827 l 741 227 z "},"ມ":{"ha":916,"x_min":68,"x_max":848,"o":"m 130 131 l 130 130 q 158 98 130 98 q 186 131 186 98 q 159 164 186 164 q 130 131 130 164 m 345 60 q 191 0 297 0 q 68 131 71 0 q 161 221 69 221 l 163 221 q 250 145 250 220 l 250 136 q 232 90 250 106 q 296 199 288 90 l 296 754 q 342 773 296 773 q 388 754 388 773 l 387 198 l 387 197 q 571 92 387 92 q 591 91 581 91 q 756 199 743 91 l 756 754 q 802 773 756 773 q 848 755 848 773 l 848 198 q 570 0 836 0 q 345 60 416 0 z "},"ຢ":{"ha":821,"x_min":68,"x_max":746,"o":"m 276 662 q 229 703 274 703 q 186 662 191 701 q 231 615 189 615 q 276 662 276 615 m 721 237 q 393 0 716 0 q 68 233 68 0 q 68 248 68 241 q 155 395 68 352 q 68 526 68 433 q 68 539 68 532 l 68 571 q 224 773 68 771 q 339 671 339 764 q 338 652 339 662 q 237 556 338 556 q 159 594 181 557 l 159 539 q 158 523 158 530 q 191 460 158 477 q 285 439 230 439 q 339 393 339 439 q 284 347 338 347 q 191 327 229 347 q 158 254 158 309 q 159 233 158 244 l 159 231 q 379 91 159 91 l 408 91 q 631 237 631 91 l 631 789 l 631 789 q 633 855 631 827 q 638 917 633 888 q 650 970 642 946 q 703 994 656 994 l 705 994 q 746 981 746 993 q 745 977 746 979 q 731 930 736 960 q 724 863 726 901 q 721 777 721 826 l 721 237 z "},"ຣ":{"ha":821,"x_min":68,"x_max":753,"o":"m 275 242 q 230 288 275 288 q 184 242 184 288 q 230 196 184 196 q 275 242 275 196 m 320 772 q 344 773 331 773 q 385 772 362 773 q 466 764 420 770 q 553 750 511 759 q 632 726 595 741 q 701 685 669 711 q 743 634 732 659 q 745 623 745 628 q 717 584 745 603 q 687 571 698 571 q 673 583 677 571 q 642 619 667 606 q 585 646 616 633 q 520 663 553 659 q 435 674 486 667 q 321 682 383 681 q 200 654 228 675 q 164 595 172 633 l 164 587 q 286 486 164 504 l 494 445 q 753 228 753 402 q 722 109 753 151 q 641 43 689 68 q 535 9 593 19 q 391 0 486 1 q 68 200 68 0 q 218 340 68 336 q 339 250 339 338 q 338 233 339 242 q 224 140 338 140 q 162 167 189 140 q 391 87 191 87 q 598 121 536 87 q 663 226 659 156 q 475 361 663 321 l 269 398 q 68 582 68 431 q 103 690 75 658 q 160 738 132 723 q 226 764 189 753 q 320 772 267 769 z "},"ລ":{"ha":821,"x_min":68,"x_max":753,"o":"m 193 104 q 244 58 193 58 q 294 104 294 58 q 244 151 294 151 q 193 104 193 151 m 602 0 q 520 27 562 0 q 452 119 479 54 q 382 218 425 185 q 292 254 340 251 q 275 255 283 255 q 172 191 183 255 q 239 219 201 219 q 363 123 363 205 q 365 102 365 112 q 232 0 365 1 q 68 177 68 4 q 278 344 83 344 l 288 344 q 430 298 369 334 q 528 179 491 262 q 602 96 564 96 q 663 136 663 96 l 663 543 q 427 682 663 682 l 408 682 q 159 564 159 682 q 113 543 159 543 q 68 564 68 543 q 410 773 68 773 q 753 542 753 773 l 753 136 q 602 0 753 0 z "},"ວ":{"ha":821,"x_min":68,"x_max":753,"o":"m 258 239 q 244 271 258 258 q 210 283 231 283 q 174 270 188 283 q 159 237 159 256 q 174 204 159 216 q 210 191 188 191 q 245 204 231 191 q 259 237 259 216 l 258 239 m 306 95 q 328 91 306 95 q 389 86 349 86 q 484 94 434 86 q 573 121 533 102 q 637 177 612 141 q 663 271 663 214 l 663 484 q 639 577 663 539 q 576 640 615 616 q 489 674 537 663 q 395 684 441 684 q 325 679 366 684 q 247 659 283 673 q 185 618 210 644 q 156 574 160 593 q 110 554 152 555 l 108 554 q 68 584 68 554 q 100 657 68 614 q 181 725 133 700 q 288 762 229 750 q 397 773 346 773 q 529 758 465 773 q 642 708 593 742 q 722 620 692 673 q 753 490 753 566 l 753 264 q 721 138 753 189 q 639 57 689 87 q 524 13 589 26 q 395 0 459 0 q 272 20 334 0 q 172 64 211 40 q 98 130 127 89 q 68 229 68 171 q 100 320 68 284 q 189 365 132 357 q 260 351 232 364 q 304 318 288 338 q 328 275 321 298 q 334 231 334 252 q 311 159 332 191 q 238 119 290 127 q 306 95 262 104 z "},"ສ":{"ha":821,"x_min":68,"x_max":753,"o":"m 239 62 q 290 109 290 62 q 239 156 290 156 q 189 109 189 156 q 239 62 189 62 m 707 667 q 753 529 753 612 l 753 136 q 602 0 753 0 q 521 34 562 0 q 452 133 479 67 q 386 229 425 199 q 292 258 347 258 q 172 191 181 258 q 239 219 201 219 q 363 123 363 212 q 365 102 365 113 q 232 0 365 1 q 68 170 68 4 q 292 348 81 338 q 430 309 368 348 q 528 182 491 269 q 602 96 564 96 q 663 136 663 96 l 663 529 q 653 575 663 550 q 331 452 530 452 q 68 610 68 452 q 357 773 68 773 l 365 773 q 629 726 534 773 q 659 805 654 791 q 677 813 661 813 q 708 809 689 813 q 747 786 747 800 q 747 782 747 784 q 707 667 740 764 m 576 644 q 357 682 504 682 q 161 610 161 682 q 328 541 161 541 q 576 644 486 541 z "},"ຫ":{"ha":949,"x_min":68,"x_max":882,"o":"m 165 606 q 203 656 203 606 q 165 705 203 705 q 129 656 129 705 q 165 606 129 606 m 420 709 q 389 679 391 706 q 425 649 389 649 l 427 649 q 451 650 440 649 q 420 709 448 709 m 542 239 q 301 0 542 0 q 68 233 68 0 q 136 472 68 367 q 173 539 158 507 q 68 656 68 541 q 175 773 68 772 q 283 656 283 772 q 221 447 283 556 q 159 233 159 338 q 302 90 159 91 q 452 238 452 90 l 452 580 q 427 578 440 578 q 334 676 334 578 q 420 773 334 773 q 527 705 500 773 q 695 773 620 773 q 882 584 880 772 l 882 30 q 837 0 882 0 q 791 32 791 0 l 791 586 q 694 682 790 682 q 548 630 609 682 q 542 614 543 622 l 542 239 z "},"ອ":{"ha":821,"x_min":68,"x_max":753,"o":"m 212 215 q 202 239 212 230 q 178 249 193 249 q 152 239 162 249 q 141 214 141 229 q 152 189 141 199 q 178 180 162 180 q 202 189 193 180 q 212 214 212 199 l 212 215 m 655 530 q 656 545 656 537 q 632 613 656 587 q 559 659 604 644 q 460 680 515 673 q 409 683 435 683 q 339 679 376 683 q 237 652 273 670 q 178 600 200 634 q 159 543 159 571 q 161 530 159 536 q 203 467 165 495 q 321 431 241 439 q 393 427 358 427 q 471 433 433 427 q 587 462 541 442 q 655 530 634 482 m 387 0 q 181 45 247 6 q 98 111 125 71 q 68 201 71 152 q 92 270 74 244 q 144 305 111 296 q 179 310 162 310 q 207 307 193 310 q 251 281 236 299 q 273 243 267 263 q 275 218 275 231 q 274 200 275 210 q 254 156 270 177 q 223 136 237 136 l 221 136 q 311 103 236 115 q 412 94 368 94 q 439 94 427 94 q 532 112 492 98 q 601 143 572 125 q 650 199 629 162 q 667 284 667 231 q 666 307 667 295 l 666 414 q 587 367 633 383 q 471 345 541 351 q 371 340 418 340 q 340 340 355 340 q 235 356 279 342 q 155 394 192 370 q 96 454 117 418 q 71 526 74 490 q 70 549 70 538 q 74 593 70 572 q 111 665 80 625 q 196 729 142 706 q 307 763 250 753 q 409 773 363 773 q 539 756 473 773 q 651 711 606 740 q 724 631 696 682 q 753 507 753 580 l 753 234 q 731 147 753 193 q 675 81 706 106 q 595 36 644 56 q 460 6 547 15 l 387 0 z "},"ຮ":{"ha":821,"x_min":68,"x_max":753,"o":"m 224 201 q 270 247 270 201 q 224 292 270 292 q 178 247 178 292 q 224 201 178 201 m 249 773 q 393 743 320 773 q 507 713 465 713 q 625 734 587 713 q 662 765 662 756 q 707 773 662 773 q 751 747 751 773 q 685 673 751 721 q 505 625 618 625 q 357 659 424 632 q 248 685 290 685 q 185 662 213 685 q 157 595 158 640 q 286 498 157 517 l 494 458 q 753 228 753 415 q 722 109 753 151 q 641 43 689 68 q 535 9 593 19 q 391 0 486 1 q 68 200 68 0 q 218 353 68 349 q 339 253 339 351 q 338 233 339 243 q 224 140 338 140 q 162 167 189 140 q 391 87 191 87 q 598 121 536 87 q 663 226 659 156 q 475 374 663 321 l 269 411 q 68 595 68 444 q 125 725 68 677 q 249 773 182 773 z "},"ຯ":{"ha":821,"x_min":68,"x_max":753,"o":"m 277 665 q 229 711 277 711 q 182 665 182 711 q 229 618 182 618 q 277 665 277 618 m 300 462 q 489 545 376 462 q 662 774 603 627 l 753 725 l 274 -282 l 205 -236 l 561 510 q 300 378 444 378 q 68 597 68 378 q 203 774 68 770 q 340 668 340 772 q 339 650 340 660 q 209 555 339 555 q 153 583 178 555 q 300 462 161 462 z "},"ະ":{"ha":703,"x_min":68,"x_max":635,"o":"m 140 629 q 153 598 140 610 q 186 586 165 586 q 218 597 207 586 q 229 628 229 609 q 217 659 229 647 q 184 671 204 671 q 152 659 163 671 q 140 629 140 648 m 214 485 q 177 495 214 485 q 103 551 141 506 q 68 633 68 593 l 68 640 q 100 710 71 684 q 162 739 128 736 q 176 740 170 740 q 225 732 202 740 q 270 703 254 723 q 292 664 286 684 q 298 628 298 646 l 298 624 q 289 584 297 604 q 261 546 281 564 q 329 533 286 533 q 345 534 337 533 q 463 574 413 536 q 547 733 532 623 l 635 733 q 537 532 610 601 q 341 464 463 464 q 214 485 286 464 m 140 192 q 153 161 140 174 q 186 149 165 149 q 218 161 207 149 q 229 191 229 172 q 217 222 229 210 q 184 234 204 234 q 152 222 163 234 q 140 192 140 211 m 214 48 q 177 59 214 48 q 103 115 141 69 q 68 197 68 157 l 68 203 q 100 273 71 247 q 162 302 128 300 q 176 303 170 303 q 225 296 202 303 q 270 267 254 286 q 292 227 286 247 q 298 191 298 210 l 298 187 q 289 147 297 167 q 261 109 281 127 q 329 96 286 96 q 345 97 337 96 q 463 137 413 100 q 547 296 532 186 l 635 296 q 537 96 610 164 q 341 27 463 27 q 214 48 286 27 z "},"ັ":{"ha":0,"x_min":-633,"x_max":-57,"o":"m -467 1006 q -480 1038 -467 1029 q -509 1046 -494 1046 q -539 1034 -528 1046 q -551 1008 -551 1021 q -539 982 -551 996 q -508 968 -528 968 q -479 979 -492 968 q -467 1006 -467 991 m -57 1107 q -139 930 -73 982 q -335 878 -205 878 l -336 878 q -378 877 -350 878 q -398 876 -387 876 q -437 878 -417 876 q -505 886 -470 879 q -569 909 -541 894 q -616 953 -597 924 q -633 1012 -633 979 l -633 1019 q -621 1065 -632 1047 q -591 1096 -609 1083 q -554 1115 -573 1109 q -521 1120 -535 1120 q -502 1120 -517 1120 q -468 1114 -486 1119 q -430 1096 -450 1109 q -402 1070 -410 1083 q -390 1046 -395 1057 q -385 1022 -386 1036 l -385 1015 q -387 993 -385 1004 q -404 962 -391 978 q -368 960 -404 960 q -314 961 -347 960 q -265 965 -290 961 q -219 981 -240 969 q -179 1024 -197 993 q -149 1106 -161 1055 l -57 1107 z "},"າ":{"ha":484,"x_min":68,"x_max":416,"o":"m 224 612 q 177 659 224 659 q 130 612 130 659 q 177 564 130 564 q 224 612 224 564 m 416 23 q 374 0 416 0 q 332 23 332 0 l 332 562 q 258 675 332 667 q 287 612 287 648 q 191 494 287 494 q 170 493 180 493 q 68 618 69 493 q 224 773 72 773 q 416 559 416 773 l 416 23 z "},"ຳ":{"ha":473,"x_min":-450,"x_max":406,"o":"m -152 979 q -194 875 -152 917 q -298 833 -235 833 q -355 844 -327 833 q -404 876 -382 855 q -437 924 -425 896 q -450 979 -450 951 q -438 1038 -450 1010 q -405 1086 -426 1065 q -357 1119 -384 1107 q -298 1131 -330 1131 q -245 1119 -272 1131 q -197 1089 -218 1108 q -163 1041 -176 1069 q -152 986 -152 1015 l -152 979 m 167 564 q 214 612 214 564 q 167 659 214 659 q 120 612 120 659 q 167 564 120 564 m 406 24 q 364 0 406 0 q 322 24 322 0 l 322 562 q 248 675 322 667 q 277 612 277 648 q 181 494 277 494 q 160 493 170 493 q 58 618 59 493 q 214 773 62 773 q 406 560 406 773 l 406 24 m -300 927 q -246 981 -246 927 q -300 1036 -246 1036 q -353 981 -353 1036 q -300 927 -353 927 z "},"ິ":{"ha":0,"x_min":-749,"x_max":-146,"o":"m -369 909 q -355 935 -366 928 q -312 956 -344 942 q -260 994 -281 972 q -245 1024 -245 1007 q -249 1042 -245 1032 q -309 1088 -259 1069 q -447 1106 -358 1106 l -461 1106 q -593 1092 -551 1106 q -650 1047 -639 1076 q -654 1026 -654 1036 q -643 996 -654 1010 q -599 959 -625 974 q -546 933 -557 942 q -534 911 -536 924 q -582 876 -538 876 q -599 878 -589 876 q -661 905 -635 889 q -708 940 -686 920 q -737 979 -729 960 q -749 1029 -745 999 q -716 1103 -749 1065 q -621 1159 -684 1141 q -453 1181 -557 1177 q -283 1160 -351 1177 q -181 1101 -216 1142 q -146 1029 -147 1059 q -161 974 -146 996 q -195 935 -175 951 q -238 903 -214 919 q -312 876 -262 886 q -369 909 -369 876 z "},"ີ":{"ha":0,"x_min":-749,"x_max":-119,"o":"m -119 876 l -323 876 q -379 911 -379 876 q -366 937 -377 929 q -323 957 -354 944 q -272 996 -292 975 q -259 1025 -259 1009 q -262 1042 -259 1033 q -321 1086 -273 1066 q -448 1104 -367 1104 l -474 1104 q -597 1090 -557 1104 q -652 1047 -641 1074 q -656 1027 -656 1037 q -645 998 -656 1012 q -602 960 -627 976 q -551 934 -562 943 q -540 913 -541 925 q -586 876 -543 876 q -602 878 -593 876 q -663 905 -638 889 q -708 941 -688 921 q -737 982 -729 961 q -749 1033 -745 1002 q -717 1101 -749 1063 q -624 1158 -685 1139 q -460 1181 -562 1177 q -295 1158 -361 1177 q -197 1098 -230 1140 q -163 1032 -164 1057 q -174 982 -163 998 q -218 937 -185 966 l -119 937 l -119 876 z "},"ຶ":{"ha":0,"x_min":-749,"x_max":-157,"o":"m -369 909 q -355 935 -366 928 q -312 956 -344 942 q -260 994 -281 972 q -245 1024 -245 1007 q -249 1042 -245 1032 q -309 1088 -259 1069 q -441 1105 -357 1105 l -468 1105 q -593 1092 -552 1105 q -650 1047 -639 1076 q -654 1026 -654 1036 q -643 996 -654 1010 q -599 959 -625 974 q -546 933 -557 942 q -534 911 -536 924 q -582 876 -538 876 q -599 878 -589 876 q -661 905 -635 889 q -708 940 -686 920 q -737 980 -729 960 q -749 1030 -745 999 q -716 1100 -749 1059 q -621 1159 -684 1141 q -453 1181 -557 1177 q -285 1159 -351 1177 q -189 1097 -220 1141 q -157 1029 -158 1053 q -168 974 -157 996 q -197 935 -179 951 q -238 903 -214 919 q -312 876 -262 886 q -369 909 -369 876 m -513 1008 q -495 1044 -513 1029 q -450 1059 -476 1059 q -406 1044 -425 1059 q -387 1008 -387 1029 q -406 971 -387 986 q -450 956 -425 956 q -495 971 -476 956 q -513 1008 -513 986 z "},"ື":{"ha":0,"x_min":-749,"x_max":-119,"o":"m -519 1011 q -502 1048 -519 1033 q -458 1063 -484 1063 q -415 1048 -433 1063 q -396 1011 -396 1033 q -415 974 -396 989 q -458 958 -433 958 q -502 974 -484 958 q -519 1011 -519 989 m -119 876 l -323 876 q -379 911 -379 876 q -366 937 -377 929 q -323 957 -354 944 q -272 996 -292 975 q -259 1025 -259 1009 q -262 1042 -259 1033 q -321 1086 -273 1066 q -448 1104 -367 1104 l -474 1104 q -597 1090 -557 1104 q -652 1047 -641 1074 q -656 1027 -656 1037 q -645 998 -656 1012 q -602 960 -627 976 q -551 934 -562 943 q -540 913 -541 925 q -586 876 -543 876 q -602 878 -593 876 q -663 905 -638 889 q -708 941 -688 921 q -738 980 -729 961 q -749 1033 -746 1000 q -717 1101 -749 1063 q -624 1158 -685 1139 q -460 1181 -562 1177 q -298 1160 -361 1177 q -210 1118 -235 1144 q -176 1048 -184 1091 q -175 1034 -175 1041 q -182 987 -175 1004 q -218 937 -192 966 l -119 937 l -119 876 z "},"ຸ":{"ha":0,"x_min":-412,"x_max":-186,"o":"m -277 -150 q -286 -130 -277 -138 q -307 -122 -296 -122 q -330 -130 -319 -122 q -339 -149 -339 -138 l -339 -151 q -329 -170 -339 -160 q -307 -179 -319 -179 q -286 -169 -296 -179 q -277 -150 -277 -159 m -189 -209 l -190 -209 q -204 -241 -199 -232 q -220 -262 -210 -251 q -242 -286 -230 -274 q -295 -324 -255 -298 l -374 -286 q -320 -252 -342 -272 q -292 -216 -299 -232 q -329 -222 -316 -222 l -331 -222 q -364 -214 -344 -222 q -404 -182 -397 -199 q -412 -138 -412 -165 q -394 -97 -404 -108 q -370 -78 -385 -87 q -342 -66 -355 -70 q -295 -62 -329 -63 l -292 -62 q -261 -70 -283 -62 q -221 -92 -239 -78 q -193 -134 -203 -106 q -186 -174 -186 -150 q -189 -209 -186 -189 z "},"ູ":{"ha":0,"x_min":-474,"x_max":-210,"o":"m -409 -129 q -412 -130 -409 -129 q -419 -139 -415 -132 q -422 -152 -422 -145 q -419 -165 -422 -159 q -409 -175 -415 -172 q -380 -180 -403 -179 q -369 -152 -369 -165 q -373 -139 -369 -145 q -382 -129 -376 -132 q -395 -125 -389 -125 q -409 -129 -402 -125 m -332 -196 q -338 -235 -338 -216 q -337 -252 -338 -243 q -308 -265 -332 -265 q -284 -187 -284 -265 l -284 -79 l -210 -79 l -210 -191 q -308 -330 -210 -330 q -397 -286 -378 -330 q -406 -250 -406 -268 q -399 -221 -406 -235 q -435 -212 -418 -221 q -464 -185 -453 -202 q -474 -150 -474 -168 q -464 -114 -474 -131 q -435 -87 -453 -96 q -397 -79 -416 -79 q -360 -87 -378 -79 q -332 -114 -342 -96 q -321 -150 -321 -131 q -332 -196 -321 -167 z "},"ົ":{"ha":0,"x_min":-633,"x_max":-57,"o":"m -470 986 q -513 1031 -477 1031 q -536 1026 -528 1031 q -549 1014 -545 1021 q -555 999 -553 1007 q -556 987 -556 991 q -543 955 -556 966 q -518 945 -531 945 l -515 945 q -483 956 -494 945 q -470 986 -473 967 m -151 876 l -151 880 q -313 1040 -151 1040 l -421 1040 q -402 1002 -408 1018 q -400 985 -400 994 q -402 966 -400 976 q -420 924 -408 945 q -446 895 -433 903 q -479 882 -460 887 q -515 876 -497 876 q -518 877 -517 876 q -562 884 -538 877 q -597 904 -585 892 q -618 931 -610 916 q -633 979 -633 964 l -633 980 q -628 1018 -633 994 q -615 1050 -623 1043 q -561 1098 -595 1084 q -486 1116 -526 1112 q -405 1120 -445 1120 l -315 1120 q -57 876 -69 1120 l -151 876 z "},"ຼ":{"ha":0,"x_min":-690,"x_max":-76,"o":"m -623 -236 l -622 -236 l -622 -240 q -609 -267 -622 -256 q -577 -279 -595 -279 q -547 -266 -561 -279 q -534 -237 -534 -254 l -534 -233 q -565 -181 -534 -212 q -606 -198 -593 -186 q -623 -236 -620 -210 m -496 -176 q -464 -240 -464 -210 q -465 -247 -464 -243 q -482 -295 -469 -281 q -506 -317 -495 -309 q -539 -331 -517 -326 q -570 -334 -553 -334 q -591 -334 -580 -334 q -614 -329 -596 -334 q -651 -310 -632 -323 q -678 -280 -671 -296 q -690 -230 -686 -263 q -675 -162 -690 -192 q -620 -114 -661 -132 q -534 -98 -583 -98 l -525 -98 q -426 -126 -471 -100 q -337 -197 -381 -153 q -254 -238 -298 -238 q -244 -237 -249 -238 q -157 -98 -174 -233 l -76 -98 q -242 -332 -93 -332 l -244 -332 q -389 -265 -337 -331 q -496 -176 -441 -199 z "},"ຽ":{"ha":662,"x_min":68,"x_max":594,"o":"m 267 -138 q 249 -97 267 -113 q 204 -82 232 -82 q 163 -97 178 -82 q 149 -130 149 -111 q 150 -138 149 -134 q 233 -193 153 -183 q 267 -139 267 -170 l 267 -138 m 593 736 q 582 670 593 697 q 541 635 571 643 q 506 631 525 631 q 469 634 488 631 q 382 655 428 642 q 284 685 336 669 q 200 703 233 701 l 194 703 q 163 690 167 703 l 163 686 q 192 667 163 674 q 272 647 224 660 q 376 617 319 635 q 481 576 432 600 q 562 524 530 553 q 593 458 593 494 l 593 -31 q 594 -68 593 -43 l 594 -74 q 590 -122 594 -96 q 572 -178 585 -151 q 534 -229 560 -204 q 467 -271 509 -254 q 360 -286 429 -286 l 355 -286 q 241 -278 289 -286 q 149 -251 191 -270 q 87 -207 106 -233 q 68 -136 68 -180 l 68 -132 q 104 -46 68 -82 q 183 -5 142 -9 q 205 -5 195 -5 q 250 -11 231 -5 q 295 -36 275 -20 q 329 -81 315 -52 q 339 -128 339 -102 q 338 -149 339 -138 q 315 -201 332 -187 q 365 -208 339 -208 q 379 -207 372 -208 q 442 -190 412 -205 q 482 -144 471 -176 q 496 -75 493 -112 q 498 -4 498 -37 l 498 416 q 339 533 498 475 l 136 602 q 77 669 77 620 q 78 679 77 673 q 98 737 83 717 q 132 765 112 758 q 187 773 151 772 l 191 773 q 285 762 226 773 q 393 738 347 750 q 469 718 439 725 q 474 718 471 718 q 498 772 498 718 l 593 772 l 593 736 z "},"ເ":{"ha":409,"x_min":68,"x_max":341,"o":"m 283 127 q 251 163 283 163 q 218 127 218 163 q 251 92 218 92 q 283 127 283 92 m 151 208 q 163 135 151 138 q 255 214 170 214 q 341 132 340 214 q 225 0 337 0 q 68 208 68 0 l 68 587 q 123 735 68 698 q 229 773 178 773 q 340 747 294 773 l 340 669 q 229 684 279 684 q 168 658 184 684 q 151 603 151 631 l 151 208 z "},"ແ":{"ha":762,"x_min":68,"x_max":694,"o":"m 283 127 q 251 163 283 163 q 218 127 218 163 q 251 92 218 92 q 283 127 283 92 m 151 208 q 163 135 151 138 q 255 214 170 214 q 341 132 340 214 q 225 0 337 0 q 68 208 68 0 l 68 587 q 123 735 68 698 q 229 773 178 773 q 340 747 294 773 l 340 669 q 229 684 279 684 q 168 658 184 684 q 151 603 151 631 l 151 208 m 637 127 q 604 163 637 163 q 572 127 572 163 q 604 92 572 92 q 637 127 637 92 m 505 208 q 516 135 505 138 q 608 214 523 214 q 694 132 693 214 q 578 0 690 0 q 421 208 421 0 l 421 587 q 476 735 421 698 q 582 773 531 773 q 693 747 648 773 l 693 669 q 582 684 632 684 q 521 658 537 684 q 505 603 505 631 l 505 208 z "},"ໂ":{"ha":601,"x_min":68,"x_max":533,"o":"m 439 90 q 472 126 472 90 q 439 162 472 162 q 407 126 407 162 q 439 90 407 90 m 165 1100 q 158 1082 158 1092 q 182 1042 158 1065 l 373 854 l 460 779 l 460 777 q 362 722 380 756 q 341 651 343 688 l 341 212 q 355 138 343 140 q 447 218 361 218 q 533 134 532 218 q 417 0 529 0 q 252 212 260 0 l 252 649 q 271 734 253 694 q 305 790 290 775 l 111 986 q 68 1084 68 1030 q 101 1171 70 1136 q 194 1210 145 1210 q 297 1168 254 1210 l 368 1097 q 519 994 466 994 q 532 995 526 994 l 532 919 q 489 912 509 912 q 451 920 469 912 q 307 1042 416 933 l 252 1096 q 208 1124 230 1124 q 165 1100 186 1124 z "},"ໃ":{"ha":680,"x_min":68,"x_max":612,"o":"m 522 94 q 554 130 554 94 q 522 165 554 165 q 489 130 489 165 q 522 94 489 94 m 422 212 q 433 138 422 140 q 526 218 440 218 q 612 134 610 218 q 496 0 608 0 q 338 212 338 0 l 338 625 q 427 819 340 732 q 513 977 513 905 q 340 1124 511 1124 q 159 977 159 1124 q 225 884 170 895 q 235 884 231 884 q 302 929 274 884 l 368 879 q 241 798 306 798 q 222 800 232 798 q 154 821 183 802 q 104 865 125 840 q 76 917 83 890 q 68 977 68 944 q 340 1210 68 1210 q 607 977 605 1210 q 484 764 607 880 q 422 625 422 704 l 422 212 z "},"ໄ":{"ha":606,"x_min":68,"x_max":538,"o":"m 405 130 q 437 94 405 94 q 470 130 470 94 q 437 165 470 165 q 405 130 405 165 m 248 587 q 258 642 248 621 q 281 677 269 663 q 311 705 294 692 q 355 736 328 718 q 378 750 365 742 q 409 769 392 758 q 436 788 427 779 q 446 808 446 798 q 439 823 446 819 q 423 827 431 827 q 367 808 408 827 q 305 790 326 790 q 241 818 265 790 q 201 912 218 846 q 152 1058 174 1021 q 68 1147 130 1095 l 134 1214 q 202 1147 173 1185 q 244 1076 232 1109 q 259 1033 256 1042 q 270 996 262 1024 q 282 948 277 971 q 292 912 288 924 q 302 890 296 899 q 319 880 308 880 q 368 899 334 880 q 435 917 401 917 q 504 892 470 917 q 538 822 538 868 q 525 769 538 790 q 491 730 511 747 q 446 697 471 712 q 401 668 421 682 q 360 637 380 654 q 338 597 339 619 l 338 212 q 349 138 338 140 q 441 218 356 218 q 528 134 526 218 q 412 0 524 0 q 248 212 254 0 l 248 587 z "},"ໆ":{"ha":803,"x_min":68,"x_max":735,"o":"m 256 513 q 209 560 256 560 q 161 513 161 560 q 209 467 161 467 q 256 513 256 467 m 117 725 q 141 750 117 725 q 234 774 165 774 q 292 763 264 774 q 350 731 319 751 q 403 712 379 712 l 405 712 q 460 732 429 713 q 514 763 492 751 q 574 774 535 774 q 657 754 621 774 q 710 699 692 734 q 731 617 727 663 q 735 519 735 570 l 735 -54 q 701 -162 735 -117 q 624 -235 667 -207 q 525 -277 581 -264 q 425 -290 469 -290 q 354 -278 402 -290 q 266 -247 305 -267 q 193 -203 226 -228 q 127 -151 159 -178 l 198 -81 q 316 -166 256 -134 q 417 -199 376 -199 q 499 -193 456 -199 q 571 -168 542 -186 q 625 -119 601 -150 q 648 -39 648 -87 l 648 556 q 644 622 648 597 q 631 661 641 647 q 604 680 621 675 q 572 684 587 684 q 487 650 532 683 q 406 618 445 618 q 401 618 404 618 q 312 654 359 621 q 223 688 264 688 l 220 688 q 169 667 193 688 q 145 602 145 646 l 145 595 q 209 623 173 623 q 326 528 326 623 q 328 507 328 517 q 202 404 328 406 q 68 561 68 408 q 117 725 68 675 z "},"່":{"ha":0,"x_min":-499,"x_max":-416,"o":"m -499 1409 l -416 1409 l -416 1194 l -499 1194 l -499 1409 z "},"້":{"ha":0,"x_min":-597,"x_max":-116,"o":"m -439 1326 q -434 1345 -434 1337 q -436 1354 -434 1350 q -459 1369 -444 1369 q -465 1368 -462 1369 q -486 1348 -485 1364 q -486 1345 -486 1346 q -469 1328 -486 1330 q -446 1326 -458 1326 l -439 1326 m -468 1286 q -524 1305 -503 1290 q -545 1347 -545 1320 l -545 1353 q -513 1401 -543 1383 q -456 1415 -488 1415 q -442 1415 -450 1415 q -386 1387 -401 1411 q -372 1334 -372 1365 l -372 1329 q -433 1244 -374 1293 q -279 1290 -332 1251 q -197 1395 -225 1329 l -116 1361 q -195 1260 -157 1290 q -295 1212 -233 1231 q -452 1194 -357 1194 l -597 1194 l -597 1234 q -468 1286 -505 1251 z "},"໊":{"ha":0,"x_min":-633,"x_max":-176,"o":"m -334 1207 q -358 1221 -349 1211 q -371 1245 -368 1231 q -355 1258 -364 1252 q -341 1271 -346 1264 q -330 1285 -336 1278 q -323 1307 -323 1291 q -336 1332 -328 1324 q -363 1339 -345 1339 l -366 1339 q -412 1301 -389 1322 q -448 1280 -435 1280 q -481 1303 -459 1280 q -522 1337 -503 1327 q -551 1328 -542 1337 q -559 1299 -559 1319 q -552 1277 -559 1284 q -537 1264 -545 1269 q -519 1252 -529 1259 q -501 1238 -509 1245 q -547 1203 -521 1209 q -613 1249 -593 1223 q -633 1309 -633 1276 q -622 1353 -633 1334 q -597 1385 -610 1371 q -567 1406 -585 1399 q -525 1413 -550 1413 q -498 1408 -512 1413 q -467 1387 -484 1403 q -441 1362 -449 1370 q -405 1393 -423 1377 q -357 1415 -386 1410 q -315 1406 -335 1415 q -284 1383 -295 1396 q -266 1356 -273 1370 q -261 1329 -261 1344 l -261 1322 q -239 1362 -244 1347 q -227 1408 -235 1377 q -196 1399 -207 1407 q -176 1379 -184 1392 q -176 1373 -176 1376 q -189 1318 -176 1343 q -225 1271 -204 1290 q -278 1235 -247 1252 q -334 1207 -309 1219 z "},"໋":{"ha":0,"x_min":-559,"x_max":-315,"o":"m -397 1185 l -477 1185 l -477 1265 l -559 1265 l -559 1341 l -477 1341 l -477 1421 l -397 1421 l -397 1341 l -315 1341 l -315 1265 l -397 1265 l -397 1185 z "},"໌":{"ha":0,"x_min":-517,"x_max":-201,"o":"m -517 1265 q -517 1281 -517 1274 q -505 1327 -517 1308 q -463 1360 -488 1352 q -421 1366 -448 1366 q -387 1364 -406 1366 q -366 1363 -376 1363 q -294 1379 -327 1363 q -234 1440 -252 1398 l -201 1375 q -254 1317 -221 1337 q -323 1299 -283 1299 l -331 1299 q -330 1284 -330 1293 q -333 1253 -330 1270 q -360 1207 -338 1223 q -421 1190 -382 1190 q -486 1209 -460 1190 q -517 1265 -512 1228 m -457 1267 q -444 1248 -455 1255 q -426 1242 -435 1242 q -418 1242 -422 1242 q -395 1256 -404 1245 q -390 1273 -390 1264 q -391 1280 -390 1276 q -404 1300 -393 1293 q -423 1305 -413 1305 q -431 1305 -427 1305 q -452 1292 -444 1303 q -458 1274 -458 1284 q -457 1267 -458 1271 z "},"ໍ":{"ha":0,"x_min":-566,"x_max":-324,"o":"m -445 1400 q -385 1387 -414 1400 q -340 1347 -356 1373 q -324 1292 -324 1320 q -340 1238 -324 1263 q -384 1198 -355 1212 q -445 1183 -413 1183 q -505 1198 -476 1183 q -550 1238 -534 1212 q -566 1292 -566 1263 q -549 1347 -566 1320 q -504 1387 -533 1373 q -445 1400 -475 1400 m -445 1339 q -469 1333 -457 1339 q -488 1316 -481 1327 q -495 1293 -495 1305 q -488 1271 -495 1281 q -470 1254 -481 1260 q -445 1248 -458 1248 q -419 1254 -431 1248 q -400 1271 -407 1260 q -394 1293 -394 1281 q -401 1316 -394 1305 q -419 1333 -408 1327 q -445 1339 -431 1339 z "},"໐":{"ha":703,"x_min":68,"x_max":635,"o":"m 635 393 q 561 81 635 161 q 351 0 486 0 q 68 393 68 0 q 86 577 68 507 q 140 691 104 647 q 229 756 176 736 q 334 773 275 773 l 360 773 q 566 692 498 773 q 635 393 635 611 m 544 393 q 496 625 544 569 q 351 684 451 684 q 269 670 305 684 q 209 623 233 655 q 172 536 184 590 q 159 393 159 483 q 351 90 159 90 q 493 148 443 90 q 544 393 544 205 z "},"໑":{"ha":821,"x_min":68,"x_max":753,"o":"m 753 391 q 725 292 749 342 q 664 195 702 241 q 576 107 627 149 q 459 35 526 65 q 377 5 415 11 q 304 0 338 0 q 272 3 291 0 q 253 20 253 7 q 298 63 253 40 q 437 131 342 85 q 513 180 489 159 q 570 241 536 201 q 619 320 604 280 q 634 397 634 360 q 628 479 634 431 q 596 571 622 527 q 519 647 571 615 q 372 680 467 680 q 284 666 321 680 q 221 631 247 653 q 183 579 195 608 q 170 519 170 551 q 173 465 170 490 q 188 418 176 439 q 220 384 199 397 q 280 365 242 370 q 238 414 245 387 q 231 453 231 441 q 256 520 237 496 q 300 558 275 545 q 350 574 325 570 q 391 577 375 577 q 414 571 394 577 q 458 549 435 565 q 500 506 481 532 q 519 437 519 479 q 495 355 519 387 q 445 304 472 323 q 394 279 417 286 q 331 269 372 272 q 318 268 325 268 q 233 283 281 268 q 139 337 175 302 q 85 418 102 372 q 68 513 68 464 q 151 704 68 635 q 385 773 235 773 q 535 748 467 773 q 651 675 602 723 q 726 556 700 627 q 753 396 753 486 l 753 391 m 431 441 q 415 478 431 463 q 377 493 399 493 q 338 478 354 493 q 323 441 323 463 q 338 405 323 419 q 377 391 354 391 q 415 405 399 391 q 431 441 431 419 z "},"໒":{"ha":821,"x_min":68,"x_max":753,"o":"m 750 976 q 752 963 751 968 q 753 955 753 958 q 719 857 753 905 q 638 769 684 809 q 544 700 592 728 q 471 660 496 671 q 407 624 441 646 q 345 586 374 603 q 298 556 317 568 q 277 543 279 545 q 233 504 252 522 q 202 465 214 486 q 184 420 191 444 q 178 363 178 396 q 197 262 178 309 q 249 179 216 216 q 331 119 283 142 q 437 97 378 97 q 520 107 484 97 q 479 152 489 138 q 463 180 469 165 q 456 207 456 195 q 472 272 456 248 q 511 311 488 297 q 562 330 535 325 q 601 332 583 332 l 612 332 q 667 319 643 331 q 709 289 692 307 q 735 248 726 271 q 745 203 745 225 q 743 160 745 176 q 729 117 741 143 q 657 45 716 91 q 558 8 594 16 q 437 0 522 0 q 166 93 264 0 q 68 367 68 186 q 85 482 68 433 q 140 571 102 530 q 238 651 178 612 q 382 732 298 690 q 565 840 477 773 q 726 989 653 906 q 750 976 744 985 m 657 200 q 642 236 657 221 q 605 250 626 250 q 568 236 583 250 q 553 200 553 221 q 568 166 553 180 q 605 151 583 151 q 642 166 626 151 q 657 200 657 180 z "},"໓":{"ha":841,"x_min":68,"x_max":773,"o":"m 148 106 q 170 136 170 106 q 148 166 170 166 q 125 136 125 166 q 148 106 125 106 m 684 692 q 608 758 684 720 q 439 838 532 797 q 321 915 347 879 q 296 987 296 951 q 324 1060 296 1036 q 391 1084 351 1084 q 536 1048 467 1084 l 773 941 l 728 873 l 506 976 q 404 1010 426 1010 q 387 1000 393 1010 q 381 983 381 990 q 390 960 381 972 q 413 939 399 948 l 671 815 q 770 690 751 776 l 770 203 q 517 0 769 0 q 317 61 380 0 q 178 0 273 0 q 68 134 71 0 q 151 227 69 227 q 231 139 231 227 q 207 84 231 108 q 266 203 266 92 l 266 705 l 353 705 l 353 203 q 519 86 353 86 q 684 203 684 86 l 684 692 z "},"໔":{"ha":821,"x_min":68,"x_max":753,"o":"m 638 436 q 596 385 596 436 q 638 334 596 334 q 680 385 680 334 q 638 436 680 436 m 633 66 q 671 96 671 66 q 628 127 671 127 l 626 127 q 597 125 610 127 q 633 66 602 66 m 498 385 q 625 504 498 504 q 753 385 753 504 q 625 267 753 267 q 596 269 610 267 l 596 197 q 626 199 611 199 q 736 99 736 199 q 633 0 736 0 q 510 98 538 0 q 380 23 431 45 q 283 0 330 0 q 113 95 157 0 q 68 374 68 189 q 68 422 68 376 q 81 516 68 463 q 127 629 94 572 q 229 720 161 686 l 547 865 q 579 887 565 874 q 605 915 593 900 q 624 942 616 929 q 635 963 631 956 q 684 1000 657 1000 q 724 986 711 1000 q 736 956 736 972 q 725 913 736 938 q 696 863 714 888 q 655 816 679 838 q 606 783 631 795 l 300 654 q 242 616 266 642 q 203 560 218 591 q 181 496 188 529 q 174 433 174 463 q 178 319 174 376 q 199 179 182 261 q 285 98 216 98 q 381 120 330 98 q 498 182 432 143 l 498 385 z "},"໕":{"ha":821,"x_min":68,"x_max":753,"o":"m 481 864 q 466 899 481 885 q 428 913 451 913 q 391 899 407 913 q 376 864 376 885 q 448 818 384 819 q 481 864 481 836 m 638 436 q 596 385 596 436 q 638 334 596 334 q 680 385 680 334 q 638 436 680 436 m 633 66 q 671 96 671 66 q 628 127 671 127 l 626 127 q 597 125 610 127 q 633 66 602 66 m 173 437 q 178 319 174 376 q 199 179 182 261 q 285 98 216 98 q 381 120 330 98 q 498 182 432 143 l 498 385 q 625 504 498 504 q 753 385 753 504 q 625 267 753 267 q 596 269 610 267 l 596 197 q 626 199 611 199 q 736 99 736 199 q 633 0 736 0 q 510 98 538 0 q 380 23 431 45 q 283 0 330 0 q 113 95 157 0 q 68 374 68 189 q 68 422 68 376 l 68 427 q 78 524 68 470 q 110 617 88 581 q 162 674 132 654 q 233 707 193 694 l 363 764 q 318 790 334 772 q 293 826 302 807 q 282 863 283 844 q 281 878 281 871 q 282 890 281 885 q 302 940 287 920 q 337 971 317 960 q 380 989 357 983 q 427 995 404 995 q 507 976 477 995 q 549 933 536 957 q 566 888 562 909 l 566 881 q 551 826 566 861 q 616 878 587 837 q 644 946 644 916 l 644 954 q 659 987 644 980 q 690 995 675 995 q 728 982 715 995 q 741 951 741 968 q 713 872 741 932 q 635 778 684 813 q 481 742 585 742 q 418 692 472 714 l 345 657 q 281 630 312 643 q 226 594 250 616 q 186 535 201 571 q 172 445 172 500 q 173 437 172 441 z "},"໖":{"ha":846,"x_min":68,"x_max":778,"o":"m 229 633 q 277 680 277 633 q 229 726 277 726 q 182 680 182 726 q 229 633 182 633 m 423 283 q 441 346 441 318 q 437 397 441 378 q 422 417 433 417 q 406 397 410 417 q 402 346 402 378 q 423 283 402 318 m 713 728 q 775 629 755 701 l 775 246 q 588 0 775 11 q 510 31 552 0 q 450 85 469 61 q 428 120 437 102 l 422 132 l 415 120 q 393 85 406 102 q 333 31 374 61 q 255 0 291 0 q 68 246 68 11 l 68 585 q 229 789 68 785 q 348 687 348 787 q 347 665 348 677 q 243 570 347 570 q 165 598 193 570 l 159 608 l 159 246 q 249 89 159 106 q 293 103 277 89 q 334 144 309 118 q 390 220 358 171 q 359 283 370 244 q 344 359 348 322 l 344 372 q 364 453 344 424 q 422 483 384 483 q 479 453 459 483 q 499 372 499 424 l 499 359 q 484 283 495 322 q 453 220 473 244 q 509 144 485 171 q 550 103 534 118 q 594 89 566 89 q 684 246 684 106 l 684 631 q 654 683 684 659 q 531 789 574 753 q 468 846 488 824 q 444 883 448 869 q 440 914 440 898 q 466 977 440 949 q 533 1004 491 1004 q 634 974 578 1004 q 724 917 690 943 l 778 880 l 731 812 l 594 899 q 552 917 568 917 q 535 910 541 917 q 529 897 529 903 q 538 873 529 885 q 562 852 548 861 l 713 728 z "},"໗":{"ha":821,"x_min":68,"x_max":753,"o":"m 160 68 q 190 105 190 68 q 160 142 190 142 q 130 105 130 142 q 160 68 130 68 m 158 709 q 125 679 125 709 q 163 648 125 648 l 164 648 q 189 650 178 648 q 158 709 186 709 m 275 119 q 165 0 275 0 q 68 112 68 0 q 165 210 68 210 q 190 208 178 210 l 190 578 q 164 576 178 576 q 69 676 69 576 q 155 773 69 773 l 163 773 q 264 704 241 773 q 447 773 359 773 l 456 773 q 678 583 677 773 l 678 -68 q 712 -153 678 -118 q 753 -186 732 -174 l 753 -269 q 642 -202 681 -247 q 595 -68 595 -148 l 595 583 q 452 689 595 689 q 289 629 353 689 q 275 613 283 621 l 275 119 z "},"໘":{"ha":821,"x_min":68,"x_max":753,"o":"m 577 -279 q 573 -286 577 -279 q 570 -304 570 -292 q 577 -330 570 -317 q 598 -349 585 -342 q 626 -355 612 -355 q 653 -349 640 -355 q 674 -330 667 -342 q 682 -304 682 -317 q 674 -279 682 -292 q 653 -261 667 -267 q 626 -254 640 -254 q 598 -261 612 -254 q 577 -279 585 -267 m 231 129 q 182 82 182 129 q 231 35 182 35 q 278 82 278 35 q 231 129 278 129 m 655 41 l 655 495 l 656 495 q 580 689 656 689 q 467 617 519 689 q 408 574 435 574 q 349 617 380 574 q 236 689 298 689 q 160 495 160 689 l 160 154 l 166 163 q 244 192 194 192 q 349 96 349 192 q 350 75 350 85 q 231 -27 350 -26 q 68 177 68 -23 l 68 495 q 241 775 68 775 q 408 667 326 775 q 574 775 490 775 q 748 495 748 775 l 748 -27 q 688 -178 748 -125 l 669 -195 q 685 -202 677 -198 q 735 -248 717 -218 q 753 -310 753 -277 q 735 -371 753 -342 q 686 -417 718 -400 q 620 -433 654 -433 q 554 -417 585 -433 q 505 -371 522 -400 q 487 -310 487 -342 l 487 -302 q 450 -329 469 -313 q 283 -400 363 -400 q 160 -358 199 -400 q 122 -254 122 -315 q 353 -63 122 -140 l 655 41 m 653 -54 l 454 -123 l 375 -151 q 214 -254 214 -203 q 230 -297 214 -283 q 281 -310 245 -310 q 399 -258 332 -310 q 534 -188 472 -205 l 627 -109 q 653 -54 648 -89 z "},"໙":{"ha":866,"x_min":68,"x_max":798,"o":"m 798 773 l 798 233 q 607 0 798 0 q 415 233 415 0 l 415 532 q 286 685 415 685 q 155 532 155 685 l 155 220 q 190 234 171 224 q 229 244 210 243 q 238 245 233 245 q 277 237 256 245 q 321 205 303 226 q 345 161 339 185 q 349 120 349 143 q 349 102 349 111 q 331 48 345 68 q 297 18 317 28 q 260 5 278 8 q 218 1 243 1 q 103 80 138 5 q 68 221 68 155 l 68 532 q 284 773 68 773 q 500 532 500 773 l 500 233 q 606 85 500 85 q 711 233 711 85 l 711 773 l 798 773 m 274 131 q 237 168 273 165 q 189 128 193 165 q 237 79 193 83 q 274 131 271 83 z "},"ໜ":{"ha":1229,"x_min":68,"x_max":1161,"o":"m 168 606 q 205 656 205 606 q 168 705 205 705 q 130 656 130 705 q 168 606 130 606 m 413 709 q 380 679 380 709 q 418 649 380 649 l 419 649 q 444 650 433 649 q 413 709 440 709 m 1160 547 l 1161 547 l 1160 201 q 1004 0 1152 0 q 882 38 923 0 q 820 83 841 77 q 695 0 778 0 l 695 79 l 696 79 q 735 111 713 79 q 758 210 758 144 l 758 581 q 657 682 758 680 q 571 647 605 672 q 535 614 536 622 l 535 239 q 304 0 528 0 q 68 233 68 0 q 136 472 68 367 q 174 539 159 507 q 68 656 68 541 q 176 773 68 772 q 285 656 285 772 q 222 447 285 556 q 160 233 160 339 l 160 229 q 159 215 159 222 q 304 88 159 88 q 445 239 445 88 l 445 580 q 419 578 432 578 q 325 676 325 578 q 413 773 325 773 q 519 703 494 773 q 661 773 604 770 q 848 578 839 773 l 848 158 q 910 116 873 148 q 1004 84 947 84 q 1070 201 1070 84 l 1070 503 l 1069 503 l 1070 742 q 1115 773 1070 773 q 1160 742 1160 773 l 1160 547 z "},"ໝ":{"ha":1229,"x_min":68,"x_max":1161,"o":"m 756 119 q 730 127 745 127 l 726 127 q 700 99 700 125 l 700 98 q 727 68 702 71 l 728 68 q 756 119 756 68 m 178 606 q 220 656 220 606 q 178 705 220 705 q 137 656 137 705 q 178 606 137 606 m 415 703 q 385 675 387 701 q 416 644 385 644 q 446 650 427 644 q 447 665 447 658 q 415 703 447 700 m 1160 543 l 1161 543 l 1161 188 q 972 0 1161 0 q 831 70 927 0 q 726 0 808 0 q 638 97 638 0 q 732 195 638 195 q 758 193 745 195 l 758 585 q 661 682 758 682 q 535 625 606 682 l 535 235 q 304 0 528 0 q 68 233 68 0 q 136 472 68 367 q 174 539 158 507 q 68 656 68 541 q 175 771 68 771 l 178 771 q 285 656 285 771 q 224 445 285 556 q 157 231 163 334 q 304 88 163 92 q 445 239 445 88 l 445 580 q 419 578 432 578 q 325 676 325 578 q 410 771 325 771 l 418 771 q 519 703 495 771 q 661 771 611 771 l 665 771 q 846 585 839 771 l 846 159 q 856 143 849 151 q 972 84 918 84 q 1069 186 1069 84 l 1069 536 l 1068 536 l 1068 743 q 1114 773 1068 773 q 1160 743 1160 773 l 1160 543 z "}}}
